<svg xmlns="http://www.w3.org/2000/svg" xmlns:xlink="http://www.w3.org/1999/xlink" width="500" zoomAndPan="magnify" viewBox="0 0 375 374.999991" height="500" preserveAspectRatio="xMidYMid meet" version="1.0"><defs><g/><clipPath id="a48dd1cd9f"><path d="M 84.460938 27.472656 L 291.460938 27.472656 L 291.460938 214.972656 L 84.460938 214.972656 Z M 84.460938 27.472656 " clip-rule="nonzero"/></clipPath></defs><g clip-path="url(#a48dd1cd9f)"><path fill="#f1790a" d="M 237.25 47.226562 L 192.890625 47.226562 L 192.890625 32.429688 C 192.890625 32.105469 192.859375 31.785156 192.796875 31.464844 C 192.734375 31.148438 192.640625 30.839844 192.515625 30.542969 C 192.390625 30.242188 192.242188 29.957031 192.058594 29.6875 C 191.878906 29.417969 191.675781 29.171875 191.449219 28.941406 C 191.21875 28.710938 190.96875 28.507812 190.699219 28.328125 C 190.429688 28.148438 190.148438 27.996094 189.847656 27.871094 C 189.550781 27.746094 189.242188 27.652344 188.925781 27.589844 C 188.605469 27.527344 188.285156 27.496094 187.960938 27.496094 C 187.640625 27.496094 187.320312 27.527344 187 27.589844 C 186.683594 27.652344 186.375 27.746094 186.078125 27.871094 C 185.777344 27.996094 185.492188 28.148438 185.222656 28.328125 C 184.957031 28.507812 184.707031 28.710938 184.476562 28.941406 C 184.25 29.171875 184.042969 29.417969 183.863281 29.6875 C 183.683594 29.957031 183.53125 30.242188 183.410156 30.542969 C 183.285156 30.839844 183.191406 31.148438 183.128906 31.464844 C 183.066406 31.785156 183.035156 32.105469 183.035156 32.429688 L 183.035156 47.226562 L 138.675781 47.226562 C 137.871094 47.226562 137.066406 47.269531 136.261719 47.347656 C 135.460938 47.429688 134.660156 47.546875 133.871094 47.707031 C 133.078125 47.863281 132.296875 48.058594 131.527344 48.292969 C 130.753906 48.53125 129.996094 48.800781 129.25 49.109375 C 128.503906 49.421875 127.777344 49.765625 127.066406 50.148438 C 126.351562 50.527344 125.664062 50.941406 124.992188 51.390625 C 124.320312 51.839844 123.671875 52.320312 123.050781 52.832031 C 122.425781 53.347656 121.828125 53.886719 121.257812 54.457031 C 120.6875 55.03125 120.148438 55.628906 119.632812 56.25 C 119.121094 56.875 118.640625 57.523438 118.195312 58.195312 C 117.746094 58.867188 117.332031 59.558594 116.949219 60.269531 C 116.570312 60.980469 116.226562 61.710938 115.914062 62.457031 C 115.605469 63.203125 115.335938 63.960938 115.101562 64.734375 C 114.867188 65.507812 114.667969 66.289062 114.511719 67.082031 C 114.351562 67.875 114.234375 68.671875 114.15625 69.476562 C 114.074219 70.277344 114.035156 71.085938 114.035156 71.890625 L 114.035156 160.683594 C 114.035156 161.492188 114.074219 162.296875 114.15625 163.101562 C 114.234375 163.90625 114.351562 164.703125 114.511719 165.496094 C 114.667969 166.285156 114.867188 167.070312 115.101562 167.84375 C 115.335938 168.613281 115.605469 169.375 115.914062 170.121094 C 116.226562 170.867188 116.570312 171.59375 116.949219 172.308594 C 117.332031 173.019531 117.746094 173.710938 118.195312 174.382812 C 118.640625 175.054688 119.121094 175.703125 119.632812 176.324219 C 120.148438 176.949219 120.6875 177.546875 121.257812 178.117188 C 121.828125 178.691406 122.425781 179.230469 123.050781 179.742188 C 123.671875 180.257812 124.320312 180.738281 124.992188 181.1875 C 125.664062 181.632812 126.351562 182.050781 127.066406 182.429688 C 127.777344 182.8125 128.503906 183.15625 129.25 183.464844 C 129.996094 183.773438 130.753906 184.046875 131.527344 184.28125 C 132.296875 184.515625 133.078125 184.714844 133.871094 184.871094 C 134.660156 185.03125 135.460938 185.148438 136.261719 185.230469 C 137.066406 185.308594 137.871094 185.347656 138.675781 185.347656 L 165.609375 185.347656 L 183.863281 212.75 C 184.085938 213.089844 184.351562 213.394531 184.648438 213.667969 C 184.949219 213.9375 185.28125 214.171875 185.636719 214.363281 C 185.996094 214.554688 186.371094 214.699219 186.765625 214.796875 C 187.15625 214.898438 187.558594 214.945312 187.960938 214.945312 C 188.367188 214.945312 188.769531 214.898438 189.160156 214.796875 C 189.554688 214.699219 189.929688 214.554688 190.289062 214.363281 C 190.644531 214.171875 190.972656 213.9375 191.273438 213.667969 C 191.574219 213.394531 191.839844 213.089844 192.0625 212.75 L 210.3125 185.347656 L 237.25 185.347656 C 238.054688 185.347656 238.859375 185.308594 239.664062 185.230469 C 240.464844 185.148438 241.261719 185.03125 242.054688 184.871094 C 242.84375 184.714844 243.628906 184.515625 244.398438 184.28125 C 245.171875 184.046875 245.929688 183.773438 246.675781 183.464844 C 247.421875 183.15625 248.148438 182.8125 248.859375 182.429688 C 249.570312 182.050781 250.261719 181.632812 250.933594 181.1875 C 251.605469 180.738281 252.25 180.257812 252.875 179.742188 C 253.5 179.230469 254.097656 178.691406 254.667969 178.117188 C 255.238281 177.546875 255.777344 176.949219 256.289062 176.324219 C 256.800781 175.703125 257.28125 175.054688 257.730469 174.382812 C 258.179688 173.710938 258.59375 173.019531 258.976562 172.308594 C 259.355469 171.59375 259.699219 170.867188 260.007812 170.121094 C 260.316406 169.375 260.589844 168.613281 260.824219 167.84375 C 261.058594 167.070312 261.257812 166.285156 261.414062 165.496094 C 261.570312 164.703125 261.691406 163.90625 261.769531 163.101562 C 261.851562 162.296875 261.890625 161.492188 261.890625 160.683594 L 261.890625 71.890625 C 261.890625 71.085938 261.851562 70.277344 261.769531 69.476562 C 261.691406 68.671875 261.570312 67.875 261.414062 67.082031 C 261.257812 66.289062 261.058594 65.507812 260.824219 64.734375 C 260.589844 63.960938 260.316406 63.203125 260.007812 62.457031 C 259.699219 61.710938 259.355469 60.980469 258.972656 60.269531 C 258.59375 59.558594 258.179688 58.867188 257.730469 58.195312 C 257.28125 57.523438 256.800781 56.875 256.289062 56.25 C 255.777344 55.628906 255.238281 55.03125 254.667969 54.457031 C 254.097656 53.886719 253.5 53.347656 252.875 52.832031 C 252.25 52.320312 251.605469 51.839844 250.933594 51.390625 C 250.261719 50.941406 249.570312 50.527344 248.859375 50.148438 C 248.148438 49.765625 247.421875 49.421875 246.675781 49.109375 C 245.929688 48.800781 245.171875 48.53125 244.398438 48.292969 C 243.628906 48.058594 242.84375 47.863281 242.054688 47.707031 C 241.261719 47.546875 240.464844 47.429688 239.664062 47.347656 C 238.859375 47.269531 238.054688 47.226562 237.25 47.226562 Z M 252.035156 160.683594 C 252.03125 161.65625 251.9375 162.617188 251.746094 163.570312 C 251.558594 164.523438 251.277344 165.449219 250.902344 166.34375 C 250.53125 167.242188 250.078125 168.09375 249.539062 168.902344 C 248.996094 169.710938 248.386719 170.457031 247.699219 171.144531 C 247.011719 171.832031 246.265625 172.445312 245.457031 172.984375 C 244.652344 173.523438 243.800781 173.980469 242.902344 174.351562 C 242.007812 174.726562 241.082031 175.007812 240.132812 175.195312 C 239.179688 175.386719 238.21875 175.484375 237.25 175.484375 L 207.675781 175.484375 C 206.851562 175.484375 206.078125 175.679688 205.351562 176.070312 C 204.625 176.457031 204.035156 176.996094 203.578125 177.679688 L 187.960938 201.121094 L 172.347656 177.679688 C 171.890625 176.996094 171.300781 176.457031 170.574219 176.070312 C 169.847656 175.679688 169.070312 175.484375 168.25 175.484375 L 138.675781 175.484375 C 137.707031 175.484375 136.746094 175.386719 135.792969 175.195312 C 134.839844 175.007812 133.917969 174.726562 133.019531 174.351562 C 132.125 173.980469 131.273438 173.523438 130.464844 172.984375 C 129.660156 172.445312 128.914062 171.832031 128.226562 171.144531 C 127.539062 170.457031 126.925781 169.710938 126.386719 168.902344 C 125.847656 168.09375 125.394531 167.242188 125.019531 166.34375 C 124.648438 165.449219 124.367188 164.523438 124.179688 163.570312 C 123.988281 162.617188 123.890625 161.65625 123.890625 160.683594 L 123.890625 145.886719 L 252.035156 145.886719 Z M 252.035156 136.019531 L 123.890625 136.019531 L 123.890625 71.890625 C 123.890625 70.921875 123.988281 69.957031 124.179688 69.007812 C 124.367188 68.054688 124.648438 67.128906 125.019531 66.230469 C 125.394531 65.335938 125.847656 64.480469 126.386719 63.675781 C 126.925781 62.867188 127.539062 62.121094 128.226562 61.433594 C 128.914062 60.746094 129.660156 60.132812 130.464844 59.59375 C 131.273438 59.050781 132.125 58.597656 133.019531 58.222656 C 133.917969 57.851562 134.839844 57.570312 135.792969 57.378906 C 136.746094 57.191406 137.707031 57.09375 138.675781 57.09375 L 237.25 57.09375 C 238.21875 57.09375 239.179688 57.191406 240.132812 57.378906 C 241.082031 57.570312 242.007812 57.851562 242.902344 58.222656 C 243.800781 58.597656 244.652344 59.050781 245.457031 59.59375 C 246.265625 60.132812 247.011719 60.746094 247.699219 61.433594 C 248.386719 62.121094 248.996094 62.867188 249.539062 63.675781 C 250.078125 64.480469 250.53125 65.335938 250.902344 66.230469 C 251.277344 67.128906 251.558594 68.054688 251.746094 69.007812 C 251.9375 69.957031 252.03125 70.921875 252.035156 71.890625 Z M 168.25 101.488281 C 168.25 102.136719 168.183594 102.777344 168.058594 103.414062 C 167.933594 104.050781 167.746094 104.667969 167.496094 105.265625 C 167.25 105.863281 166.945312 106.433594 166.585938 106.972656 C 166.226562 107.507812 165.820312 108.007812 165.359375 108.464844 C 164.902344 108.925781 164.40625 109.332031 163.867188 109.691406 C 163.328125 110.054688 162.761719 110.355469 162.164062 110.605469 C 161.566406 110.851562 160.949219 111.039062 160.3125 111.167969 C 159.679688 111.292969 159.039062 111.355469 158.390625 111.355469 C 157.742188 111.355469 157.101562 111.292969 156.46875 111.167969 C 155.832031 111.039062 155.21875 110.851562 154.617188 110.605469 C 154.019531 110.355469 153.453125 110.054688 152.914062 109.691406 C 152.375 109.332031 151.878906 108.925781 151.421875 108.464844 C 150.964844 108.007812 150.554688 107.507812 150.195312 106.972656 C 149.835938 106.433594 149.53125 105.863281 149.285156 105.265625 C 149.035156 104.667969 148.851562 104.050781 148.722656 103.414062 C 148.597656 102.777344 148.535156 102.136719 148.535156 101.488281 C 148.535156 100.84375 148.597656 100.199219 148.722656 99.566406 C 148.851562 98.929688 149.035156 98.3125 149.285156 97.714844 C 149.53125 97.117188 149.835938 96.546875 150.195312 96.007812 C 150.554688 95.46875 150.964844 94.972656 151.421875 94.511719 C 151.878906 94.054688 152.375 93.648438 152.914062 93.285156 C 153.453125 92.925781 154.019531 92.621094 154.617188 92.375 C 155.21875 92.128906 155.832031 91.941406 156.46875 91.8125 C 157.101562 91.6875 157.742188 91.625 158.390625 91.625 C 159.039062 91.625 159.679688 91.6875 160.3125 91.8125 C 160.949219 91.941406 161.566406 92.128906 162.164062 92.375 C 162.761719 92.621094 163.328125 92.925781 163.867188 93.285156 C 164.40625 93.648438 164.902344 94.054688 165.359375 94.511719 C 165.820312 94.972656 166.226562 95.46875 166.585938 96.007812 C 166.945312 96.546875 167.25 97.117188 167.496094 97.714844 C 167.746094 98.3125 167.933594 98.929688 168.058594 99.566406 C 168.183594 100.199219 168.25 100.84375 168.25 101.488281 Z M 227.390625 101.488281 C 227.390625 102.136719 227.328125 102.777344 227.203125 103.414062 C 227.074219 104.050781 226.886719 104.667969 226.640625 105.265625 C 226.394531 105.863281 226.089844 106.433594 225.730469 106.972656 C 225.371094 107.507812 224.960938 108.007812 224.503906 108.464844 C 224.046875 108.925781 223.546875 109.332031 223.011719 109.691406 C 222.472656 110.054688 221.902344 110.355469 221.304688 110.605469 C 220.707031 110.851562 220.089844 111.039062 219.457031 111.167969 C 218.820312 111.292969 218.179688 111.355469 217.535156 111.355469 C 216.886719 111.355469 216.246094 111.292969 215.609375 111.167969 C 214.976562 111.039062 214.359375 110.851562 213.761719 110.605469 C 213.164062 110.355469 212.597656 110.054688 212.058594 109.691406 C 211.519531 109.332031 211.023438 108.925781 210.5625 108.464844 C 210.105469 108.007812 209.699219 107.507812 209.339844 106.972656 C 208.976562 106.433594 208.675781 105.863281 208.425781 105.265625 C 208.179688 104.667969 207.992188 104.050781 207.867188 103.414062 C 207.738281 102.777344 207.675781 102.136719 207.675781 101.488281 C 207.675781 100.84375 207.738281 100.199219 207.867188 99.566406 C 207.992188 98.929688 208.179688 98.3125 208.425781 97.714844 C 208.675781 97.117188 208.976562 96.546875 209.339844 96.007812 C 209.699219 95.46875 210.105469 94.972656 210.5625 94.511719 C 211.023438 94.054688 211.519531 93.648438 212.058594 93.285156 C 212.597656 92.925781 213.164062 92.621094 213.761719 92.375 C 214.359375 92.128906 214.976562 91.941406 215.609375 91.8125 C 216.246094 91.6875 216.886719 91.625 217.535156 91.625 C 218.179688 91.625 218.820312 91.6875 219.457031 91.8125 C 220.089844 91.941406 220.707031 92.128906 221.304688 92.375 C 221.902344 92.621094 222.472656 92.925781 223.011719 93.285156 C 223.546875 93.648438 224.046875 94.054688 224.503906 94.511719 C 224.960938 94.972656 225.371094 95.46875 225.730469 96.007812 C 226.089844 96.546875 226.394531 97.117188 226.640625 97.714844 C 226.886719 98.3125 227.074219 98.929688 227.203125 99.566406 C 227.328125 100.199219 227.390625 100.84375 227.390625 101.488281 Z M 94.320312 81.757812 L 94.320312 121.222656 C 94.320312 121.546875 94.289062 121.867188 94.226562 122.183594 C 94.160156 122.5 94.070312 122.808594 93.945312 123.109375 C 93.820312 123.410156 93.667969 123.691406 93.488281 123.960938 C 93.308594 124.230469 93.105469 124.480469 92.875 124.710938 C 92.648438 124.9375 92.398438 125.144531 92.128906 125.324219 C 91.859375 125.503906 91.578125 125.65625 91.277344 125.777344 C 90.976562 125.902344 90.671875 125.996094 90.351562 126.058594 C 90.035156 126.121094 89.714844 126.15625 89.390625 126.15625 C 89.066406 126.15625 88.746094 126.121094 88.429688 126.058594 C 88.113281 125.996094 87.804688 125.902344 87.503906 125.777344 C 87.207031 125.65625 86.921875 125.503906 86.652344 125.324219 C 86.382812 125.144531 86.136719 124.9375 85.90625 124.710938 C 85.675781 124.480469 85.472656 124.230469 85.292969 123.960938 C 85.113281 123.691406 84.960938 123.410156 84.835938 123.109375 C 84.714844 122.808594 84.621094 122.5 84.558594 122.183594 C 84.492188 121.867188 84.460938 121.546875 84.460938 121.222656 L 84.460938 81.757812 C 84.460938 81.433594 84.492188 81.113281 84.558594 80.796875 C 84.621094 80.476562 84.714844 80.167969 84.835938 79.871094 C 84.960938 79.570312 85.113281 79.285156 85.292969 79.019531 C 85.472656 78.75 85.675781 78.5 85.90625 78.269531 C 86.136719 78.042969 86.382812 77.835938 86.652344 77.65625 C 86.921875 77.476562 87.207031 77.324219 87.503906 77.199219 C 87.804688 77.078125 88.113281 76.984375 88.429688 76.921875 C 88.746094 76.855469 89.066406 76.824219 89.390625 76.824219 C 89.714844 76.824219 90.035156 76.855469 90.351562 76.921875 C 90.671875 76.984375 90.976562 77.078125 91.277344 77.199219 C 91.578125 77.324219 91.859375 77.476562 92.128906 77.65625 C 92.398438 77.835938 92.648438 78.042969 92.875 78.269531 C 93.105469 78.5 93.308594 78.75 93.488281 79.019531 C 93.667969 79.285156 93.820312 79.570312 93.945312 79.871094 C 94.070312 80.167969 94.160156 80.476562 94.226562 80.796875 C 94.289062 81.113281 94.320312 81.433594 94.320312 81.757812 Z M 291.460938 81.757812 L 291.460938 121.222656 C 291.460938 121.546875 291.429688 121.867188 291.367188 122.183594 C 291.304688 122.5 291.210938 122.808594 291.085938 123.109375 C 290.964844 123.410156 290.8125 123.691406 290.632812 123.960938 C 290.453125 124.230469 290.246094 124.480469 290.019531 124.710938 C 289.789062 124.9375 289.542969 125.144531 289.273438 125.324219 C 289.003906 125.503906 288.71875 125.65625 288.421875 125.777344 C 288.121094 125.902344 287.8125 125.996094 287.496094 126.058594 C 287.179688 126.121094 286.859375 126.15625 286.535156 126.15625 C 286.210938 126.15625 285.890625 126.121094 285.574219 126.058594 C 285.253906 125.996094 284.945312 125.902344 284.648438 125.777344 C 284.347656 125.65625 284.066406 125.503906 283.796875 125.324219 C 283.527344 125.144531 283.277344 124.9375 283.050781 124.710938 C 282.820312 124.480469 282.617188 124.230469 282.4375 123.960938 C 282.257812 123.691406 282.105469 123.410156 281.980469 123.109375 C 281.855469 122.808594 281.761719 122.5 281.699219 122.183594 C 281.636719 121.867188 281.605469 121.546875 281.605469 121.222656 L 281.605469 81.757812 C 281.605469 81.433594 281.636719 81.113281 281.699219 80.796875 C 281.761719 80.476562 281.855469 80.167969 281.980469 79.871094 C 282.105469 79.570312 282.257812 79.285156 282.4375 79.019531 C 282.617188 78.75 282.820312 78.5 283.050781 78.269531 C 283.277344 78.042969 283.527344 77.835938 283.796875 77.65625 C 284.066406 77.476562 284.347656 77.324219 284.648438 77.199219 C 284.945312 77.078125 285.253906 76.984375 285.574219 76.921875 C 285.890625 76.855469 286.210938 76.824219 286.535156 76.824219 C 286.859375 76.824219 287.179688 76.855469 287.496094 76.921875 C 287.8125 76.984375 288.121094 77.078125 288.421875 77.199219 C 288.71875 77.324219 289.003906 77.476562 289.273438 77.65625 C 289.542969 77.835938 289.789062 78.042969 290.019531 78.269531 C 290.246094 78.5 290.453125 78.75 290.632812 79.019531 C 290.8125 79.285156 290.964844 79.570312 291.085938 79.871094 C 291.210938 80.167969 291.304688 80.476562 291.367188 80.796875 C 291.429688 81.113281 291.460938 81.433594 291.460938 81.757812 Z M 291.460938 81.757812 " fill-opacity="1" fill-rule="nonzero"/></g><g fill="#511bb9" fill-opacity="1"><g transform="translate(43.998334, 232.885809)"><g><path d="M 23.535156 0 L 28.214844 -12.917969 C 28.523438 -13.730469 28.414062 -14.515625 27.878906 -14.992188 L 24.824219 -17.820312 C 24.546875 -18.128906 24.097656 -18.242188 23.59375 -18.242188 L 15.214844 -18.242188 C 14.683594 -18.242188 14.207031 -18.128906 13.703125 -17.820312 L 9.722656 -15.859375 C 8.910156 -15.382812 8.265625 -14.597656 7.902344 -13.757812 L 1.175781 0 L 7.816406 0 L 10.253906 -4.988281 L 11.824219 -3.417969 L 18.183594 -3.417969 L 16.953125 0 Z M 14.039062 -12.46875 C 14.429688 -13.226562 15.214844 -13.84375 16 -13.84375 L 20.539062 -13.84375 C 21.324219 -13.84375 21.742188 -13.226562 21.464844 -12.46875 L 19.640625 -7.425781 L 11.515625 -7.425781 Z M 14.039062 -12.46875 "/></g></g></g><g fill="#511bb9" fill-opacity="1"><g transform="translate(69.300041, 232.885809)"><g><path d="M 9.777344 -2.324219 L 15.550781 -18.242188 L 11.910156 -18.242188 C 11.628906 -18.242188 11.320312 -18.15625 11.097656 -18.015625 L 9.078125 -16.980469 C 8.628906 -16.757812 8.292969 -16.363281 8.125 -15.914062 L 2.355469 0 L 5.996094 0 C 6.277344 0 6.585938 -0.0859375 6.808594 -0.222656 L 8.855469 -1.261719 C 9.273438 -1.484375 9.609375 -1.878906 9.777344 -2.324219 Z M 9.777344 -2.324219 "/></g></g></g><g fill="#511bb9" fill-opacity="1"><g transform="translate(80.591937, 232.885809)"><g/></g></g><g fill="#511bb9" fill-opacity="1"><g transform="translate(92.36017, 232.885809)"><g><path d="M 8.351562 0 L 11.488281 -8.628906 L 15.300781 0 L 23.425781 0 L 23.480469 -0.167969 L 19.726562 -6.78125 L 21.492188 -6.78125 C 22.109375 -6.78125 22.722656 -7.03125 23.398438 -7.539062 L 25.667969 -9.191406 C 26.058594 -9.582031 26.3125 -9.890625 26.449219 -10.3125 L 27.429688 -12.945312 C 28.75 -16.558594 26.703125 -18.242188 22.5 -18.242188 L 8.378906 -18.242188 L 1.765625 0 Z M 13.367188 -13.84375 L 19.726562 -13.84375 C 20.484375 -13.84375 20.902344 -13.253906 20.59375 -12.46875 L 20.117188 -11.097656 C 19.839844 -10.367188 18.996094 -9.722656 18.214844 -9.722656 L 11.878906 -9.722656 Z M 13.367188 -13.84375 "/></g></g></g><g fill="#511bb9" fill-opacity="1"><g transform="translate(116.176834, 232.885809)"><g><path d="M 13.367188 -13.84375 L 26.367188 -13.84375 L 27.964844 -18.242188 L 8.378906 -18.242188 L 3.390625 -4.484375 C 3.109375 -3.699219 3.195312 -2.914062 3.699219 -2.4375 L 6.191406 -0.421875 C 6.472656 -0.113281 6.894531 0 7.453125 0 L 21.351562 0 L 22.949219 -4.398438 L 11.375 -4.398438 C 10.589844 -4.398438 10.171875 -5.015625 10.421875 -5.773438 L 10.898438 -7.0625 L 22.722656 -7.0625 L 24.238281 -11.179688 L 12.414062 -11.179688 Z M 13.367188 -13.84375 "/></g></g></g><g fill="#511bb9" fill-opacity="1"><g transform="translate(139.096877, 232.885809)"><g><path d="M 11.910156 -5.492188 L 19.027344 -5.492188 C 19.558594 -5.492188 20.0625 -5.605469 20.566406 -5.914062 L 24.546875 -7.929688 C 25.386719 -8.40625 26.058594 -9.191406 26.339844 -9.976562 L 27.429688 -12.945312 C 28.75 -16.558594 26.703125 -18.242188 22.5 -18.242188 L 8.378906 -18.242188 L 1.765625 0 L 8.351562 0 L 11.515625 -8.742188 Z M 13.367188 -13.84375 L 19.753906 -13.84375 C 20.511719 -13.84375 20.929688 -13.253906 20.621094 -12.46875 L 20.203125 -11.265625 C 19.921875 -10.507812 19.082031 -9.890625 18.296875 -9.890625 L 11.9375 -9.890625 Z M 13.367188 -13.84375 "/></g></g></g><g fill="#511bb9" fill-opacity="1"><g transform="translate(163.389879, 232.885809)"><g><path d="M 23.535156 0 L 28.214844 -12.917969 C 28.523438 -13.730469 28.414062 -14.515625 27.878906 -14.992188 L 24.824219 -17.820312 C 24.546875 -18.128906 24.097656 -18.242188 23.59375 -18.242188 L 15.214844 -18.242188 C 14.683594 -18.242188 14.207031 -18.128906 13.703125 -17.820312 L 9.722656 -15.859375 C 8.910156 -15.382812 8.265625 -14.597656 7.902344 -13.757812 L 1.175781 0 L 7.816406 0 L 10.253906 -4.988281 L 11.824219 -3.417969 L 18.183594 -3.417969 L 16.953125 0 Z M 14.039062 -12.46875 C 14.429688 -13.226562 15.214844 -13.84375 16 -13.84375 L 20.539062 -13.84375 C 21.324219 -13.84375 21.742188 -13.226562 21.464844 -12.46875 L 19.640625 -7.425781 L 11.515625 -7.425781 Z M 14.039062 -12.46875 "/></g></g></g><g fill="#511bb9" fill-opacity="1"><g transform="translate(188.691585, 232.885809)"><g><path d="M 9.777344 -2.324219 L 15.550781 -18.242188 L 11.910156 -18.242188 C 11.628906 -18.242188 11.320312 -18.15625 11.097656 -18.015625 L 9.078125 -16.980469 C 8.628906 -16.757812 8.292969 -16.363281 8.125 -15.914062 L 2.355469 0 L 5.996094 0 C 6.277344 0 6.585938 -0.0859375 6.808594 -0.222656 L 8.855469 -1.261719 C 9.273438 -1.484375 9.609375 -1.878906 9.777344 -2.324219 Z M 9.777344 -2.324219 "/></g></g></g><g fill="#511bb9" fill-opacity="1"><g transform="translate(199.983481, 232.885809)"><g><path d="M 8.351562 0 L 11.488281 -8.628906 L 15.300781 0 L 23.425781 0 L 23.480469 -0.167969 L 19.726562 -6.78125 L 21.492188 -6.78125 C 22.109375 -6.78125 22.722656 -7.03125 23.398438 -7.539062 L 25.667969 -9.191406 C 26.058594 -9.582031 26.3125 -9.890625 26.449219 -10.3125 L 27.429688 -12.945312 C 28.75 -16.558594 26.703125 -18.242188 22.5 -18.242188 L 8.378906 -18.242188 L 1.765625 0 Z M 13.367188 -13.84375 L 19.726562 -13.84375 C 20.484375 -13.84375 20.902344 -13.253906 20.59375 -12.46875 L 20.117188 -11.097656 C 19.839844 -10.367188 18.996094 -9.722656 18.214844 -9.722656 L 11.878906 -9.722656 Z M 13.367188 -13.84375 "/></g></g></g><g fill="#511bb9" fill-opacity="1"><g transform="translate(223.800145, 232.885809)"><g/></g></g><g fill="#511bb9" fill-opacity="1"><g transform="translate(235.568379, 232.885809)"><g><path d="M 11.910156 -5.492188 L 19.027344 -5.492188 C 19.558594 -5.492188 20.0625 -5.605469 20.566406 -5.914062 L 24.546875 -7.929688 C 25.386719 -8.40625 26.058594 -9.191406 26.339844 -9.976562 L 27.429688 -12.945312 C 28.75 -16.558594 26.703125 -18.242188 22.5 -18.242188 L 8.378906 -18.242188 L 1.765625 0 L 8.351562 0 L 11.515625 -8.742188 Z M 13.367188 -13.84375 L 19.753906 -13.84375 C 20.511719 -13.84375 20.929688 -13.253906 20.621094 -12.46875 L 20.203125 -11.265625 C 19.921875 -10.507812 19.082031 -9.890625 18.296875 -9.890625 L 11.9375 -9.890625 Z M 13.367188 -13.84375 "/></g></g></g><g fill="#511bb9" fill-opacity="1"><g transform="translate(259.86138, 232.885809)"><g><path d="M 8.351562 0 L 11.488281 -8.628906 L 15.300781 0 L 23.425781 0 L 23.480469 -0.167969 L 19.726562 -6.78125 L 21.492188 -6.78125 C 22.109375 -6.78125 22.722656 -7.03125 23.398438 -7.539062 L 25.667969 -9.191406 C 26.058594 -9.582031 26.3125 -9.890625 26.449219 -10.3125 L 27.429688 -12.945312 C 28.75 -16.558594 26.703125 -18.242188 22.5 -18.242188 L 8.378906 -18.242188 L 1.765625 0 Z M 13.367188 -13.84375 L 19.726562 -13.84375 C 20.484375 -13.84375 20.902344 -13.253906 20.59375 -12.46875 L 20.117188 -11.097656 C 19.839844 -10.367188 18.996094 -9.722656 18.214844 -9.722656 L 11.878906 -9.722656 Z M 13.367188 -13.84375 "/></g></g></g><g fill="#511bb9" fill-opacity="1"><g transform="translate(283.678044, 232.885809)"><g><path d="M 7.339844 0 L 16.308594 0 C 20.566406 0 23.761719 -1.679688 25.078125 -5.296875 L 28.160156 -13.757812 C 28.46875 -14.597656 28.328125 -15.382812 27.851562 -15.859375 L 25.332031 -17.820312 C 25.050781 -18.128906 24.628906 -18.242188 24.070312 -18.242188 L 15.074219 -18.242188 C 10.898438 -18.242188 7.675781 -16.558594 6.359375 -12.945312 L 3.277344 -4.484375 C 3 -3.699219 3.082031 -2.914062 3.585938 -2.4375 L 6.050781 -0.421875 C 6.332031 -0.113281 6.78125 0 7.339844 0 Z M 10.3125 -5.773438 L 12.75 -12.46875 C 13.058594 -13.253906 13.871094 -13.84375 14.625 -13.84375 L 20.203125 -13.84375 C 20.988281 -13.84375 21.40625 -13.253906 21.097656 -12.46875 L 18.660156 -5.773438 C 18.410156 -5.015625 17.570312 -4.398438 16.8125 -4.398438 L 11.234375 -4.398438 C 10.453125 -4.398438 10.058594 -5.015625 10.3125 -5.773438 Z M 10.3125 -5.773438 "/></g></g></g><g fill="#511bb9" fill-opacity="1"><g transform="translate(308.503413, 232.885809)"><g><path d="M 26.113281 -11.347656 L 12.355469 -11.347656 L 12.75 -12.46875 C 13.058594 -13.253906 13.871094 -13.84375 14.65625 -13.84375 L 27.011719 -13.84375 L 28.609375 -18.242188 L 14.824219 -18.242188 C 14.347656 -18.242188 13.8125 -18.128906 13.308594 -17.820312 L 8.183594 -14.992188 C 7.339844 -14.515625 6.640625 -13.730469 6.332031 -12.917969 L 4.175781 -6.949219 L 17.933594 -6.949219 L 17.484375 -5.773438 C 17.230469 -5.015625 16.417969 -4.398438 15.636719 -4.398438 L 3.25 -4.398438 L 1.652344 0 L 15.46875 0 C 15.972656 0 16.476562 -0.113281 16.980469 -0.421875 L 22.164062 -3.335938 C 22.976562 -3.8125 23.621094 -4.484375 23.929688 -5.324219 Z M 26.113281 -11.347656 "/></g></g></g></svg>